<svg xmlns="http://www.w3.org/2000/svg" xmlns:xlink="http://www.w3.org/1999/xlink" viewBox="0 0 113.33 155.63"><defs><style>.cls-1{fill:none;}.cls-2{isolation:isolate;}.cls-3{mix-blend-mode:darken;}.cls-4{clip-path:url(#clip-path);}.cls-5{fill:#ed6a5a;}.cls-6{clip-path:url(#clip-path-2);}.cls-7{clip-path:url(#clip-path-3);}.cls-8{fill:#eb5a47;}.cls-9{fill:#ff897a;}.cls-10{clip-path:url(#clip-path-4);}.cls-11{clip-path:url(#clip-path-5);}.cls-12{fill:#2e7953;}.cls-13{fill:#40a773;}.cls-14{fill:#4fcf8e;}</style><clipPath id="clip-path"><path class="cls-1" d="M84.8,14.62l4.71,2.56,4.71,2.56.53.31q5.52,3.5,5.5,14,0,9.83-5.41,14.52l-9.43-5.13q5.39-4.68,5.41-14.52,0-10.49-5.5-14Z"/></clipPath><clipPath id="clip-path-2"><path class="cls-1" d="M73.89,55.47l-9.43-5.13q15.56-2.19,21-6.89l9.43,5.13Q89.45,53.28,73.89,55.47Z"/></clipPath><clipPath id="clip-path-3"><path class="cls-1" d="M92.81,2.59l9.43,5.13a22.1,22.1,0,0,0-8.39-2.46q-5.27-.53-16.47,1L68,1.18Q79.15-.4,84.43.13A22.11,22.11,0,0,1,92.81,2.59Z"/></clipPath><clipPath id="clip-path-4"><path class="cls-1" d="M23.13,142.09,13.71,137q.63.34,1.24.6a12.46,12.46,0,0,0,6.67.86,9.53,9.53,0,0,0,7.76-5.52q2.27-4.74,2.29-17.72l9.43,5.13q0,13-2.29,17.72A9.52,9.52,0,0,1,31,143.54a12.46,12.46,0,0,1-6.67-.86C24,142.51,23.55,142.31,23.13,142.09Z"/></clipPath><clipPath id="clip-path-5"><path class="cls-1" d="M16.54,153.19l-9.43-5.13A27.13,27.13,0,0,1,0,142.28l9.43,5.13A27.06,27.06,0,0,0,16.54,153.19Z"/></clipPath></defs><title>Logo</title><g class="cls-2"><g id="Layer_2" data-name="Layer 2"><g id="Layer_1-2" data-name="Layer 1"><g class="cls-3"><g class="cls-2"><g class="cls-2"><g class="cls-4"><g class="cls-2"><path class="cls-5" d="M94.85,48.58l-9.43-5.13.18-.16L95,48.43l-.18.16"/><path class="cls-5" d="M95,48.43,85.6,43.3a13.67,13.67,0,0,0,1.1-1.11l9.43,5.13A13.37,13.37,0,0,1,95,48.43"/><path class="cls-5" d="M96.13,47.32,86.7,42.19a13.33,13.33,0,0,0,1-1.21l9.43,5.13a14.13,14.13,0,0,1-1,1.21"/><path class="cls-5" d="M97.08,46.1,87.66,41a14.34,14.34,0,0,0,.9-1.46L98,44.64a14.93,14.93,0,0,1-.9,1.46"/><path class="cls-5" d="M98,44.64l-9.43-5.13a16.25,16.25,0,0,0,.94-2.1l9.43,5.13A16.52,16.52,0,0,1,98,44.64"/><path class="cls-5" d="M98.93,42.53,89.5,37.41a24.71,24.71,0,0,0,1.33-8.47q0-10.49-5.5-14l-.53-.31,9.43,5.13.53.31q5.52,3.5,5.5,14a24.7,24.7,0,0,1-1.33,8.47"/></g></g></g><g class="cls-2"><g class="cls-6"><g class="cls-2"><path class="cls-5" d="M73.89,55.47l-9.43-5.13q11-1.54,16.89-4.33l9.43,5.13q-5.92,2.79-16.89,4.33"/><path class="cls-5" d="M90.78,51.14,81.35,46a20.22,20.22,0,0,0,2.88-1.63l9.43,5.13a20.09,20.09,0,0,1-2.88,1.63"/><path class="cls-5" d="M93.66,49.51l-9.43-5.13a13.63,13.63,0,0,0,1.19-.92l9.43,5.13a13.55,13.55,0,0,1-1.2.92"/></g></g></g><polygon class="cls-5" points="67.77 56.33 58.34 51.2 64.47 50.34 73.89 55.47 67.77 56.33"/><g class="cls-2"><g class="cls-7"><g class="cls-2"><path class="cls-8" d="M77.39,6.31,68,1.18Q79.15-.4,84.43.13a25.45,25.45,0,0,1,3.8.67l9.43,5.13a25.51,25.51,0,0,0-3.8-.67q-5.27-.53-16.47,1"/><path class="cls-8" d="M97.65,5.93,88.23.81a20.48,20.48,0,0,1,3.91,1.44l9.43,5.13a20.44,20.44,0,0,0-3.91-1.44"/><path class="cls-9" d="M101.56,7.37,92.13,2.24l.68.35,9.43,5.13-.68-.35"/></g></g></g><polygon class="cls-8" points="56.05 9.3 46.62 4.18 67.96 1.18 77.39 6.31 56.05 9.3"/><path class="cls-9" d="M110.62,17.38a34.27,34.27,0,0,1,2.71,14.1,40,40,0,0,1-2.77,14.86,30.3,30.3,0,0,1-7.63,11.35,28.81,28.81,0,0,1-9.15,5.56q-5.25,2-16.51,3.6l-3.4.48-6.12.86-.09,49.28-11.81,1.66L56,9.3l21.34-3q11.19-1.57,16.47-1A21.61,21.61,0,0,1,103,8.17,20.35,20.35,0,0,1,110.62,17.38ZM94.85,48.58q5.39-4.69,5.41-14.52,0-10.49-5.5-14T74,18.72l-6.12.86-.07,36.76,6.12-.86q15.56-2.19,21-6.89"/></g></g><g class="cls-3"><g class="cls-2"><g class="cls-2"><g class="cls-10"><g class="cls-2"><path class="cls-8" d="M23.13,142.09,13.71,137l.55.28,9.43,5.13-.55-.28"/><path class="cls-8" d="M23.68,142.37l-9.43-5.13.69.32a13,13,0,0,0,1.76.6l9.43,5.13a13,13,0,0,1-1.76-.59l-.69-.32"/><path class="cls-8" d="M26.13,143.28l-9.43-5.13a12.48,12.48,0,0,0,4.91.27,11.36,11.36,0,0,0,3.27-.94l9.43,5.13a11.33,11.33,0,0,1-3.27.94,12.45,12.45,0,0,1-4.91-.27"/><path class="cls-8" d="M34.31,142.6l-9.43-5.13a9.21,9.21,0,0,0,1.32-.76l9.43,5.13a9.32,9.32,0,0,1-1.32.76"/><path class="cls-8" d="M35.63,141.85l-9.43-5.13a9.19,9.19,0,0,0,.89-.7l9.43,5.13a8.77,8.77,0,0,1-.89.7"/><path class="cls-8" d="M36.52,141.14,27.09,136a9.38,9.38,0,0,0,.73-.73l9.43,5.13a8.85,8.85,0,0,1-.72.73"/><path class="cls-8" d="M37.25,140.41l-9.43-5.13a9.65,9.65,0,0,0,.66-.84l9.43,5.13a9.3,9.3,0,0,1-.66.84"/><path class="cls-8" d="M37.91,139.57l-9.43-5.13a10.89,10.89,0,0,0,.65-1.05l9.43,5.13a10.29,10.29,0,0,1-.65,1.06"/><path class="cls-8" d="M38.55,138.51l-9.43-5.13.25-.49q.23-.47.43-1L39.23,137q-.2.55-.43,1c-.08.17-.16.33-.25.49"/><path class="cls-8" d="M39.23,137l-9.43-5.13q1.84-5,1.86-16.7l9.43,5.13q0,11.69-1.86,16.7"/></g></g></g><polygon class="cls-5" points="9.43 147.4 0 142.28 8.01 132.53 17.44 137.66 9.43 147.4"/><g class="cls-2"><g class="cls-11"><g class="cls-2"><path class="cls-8" d="M16.54,153.19l-9.43-5.13A27.13,27.13,0,0,1,0,142.28l9.43,5.13a27.06,27.06,0,0,0,7.11,5.79"/></g></g></g><polygon class="cls-8" points="41.09 120.31 31.67 115.18 31.82 35.96 41.24 41.09 41.09 120.31"/><polygon class="cls-5" points="41.24 41.09 31.82 35.96 44.05 34.24 53.48 39.37 41.24 41.09"/><path class="cls-9" d="M53.47,39.37,53.31,125q0,13.81-5.7,21.24t-17.43,9.08a22.17,22.17,0,0,1-11.29-1.08,25.12,25.12,0,0,1-9.47-6.88l8-9.74a23.46,23.46,0,0,0,6.93,5,12.46,12.46,0,0,0,6.67.86A9.52,9.52,0,0,0,38.8,138q2.26-4.74,2.29-17.72l.15-79.22Z"/></g></g><g class="cls-2"><polygon class="cls-12" points="39.33 33.18 30.21 28.22 30.25 6.59 39.37 11.55 39.33 33.18"/><polygon class="cls-13" points="39.37 11.55 30.25 6.59 43.15 4.78 52.27 9.74 39.37 11.55"/><polygon class="cls-14" points="52.27 9.74 52.23 31.37 39.33 33.18 39.37 11.55 52.27 9.74"/></g></g></g></g></svg>