<svg xmlns="http://www.w3.org/2000/svg" viewBox="0 0 301.95 31.54"><defs><style>.cls-1{fill:#ed6a5a;}</style></defs><title>HR</title><g id="Layer_2" data-name="Layer 2"><g id="Layer_1-2" data-name="Layer 1"><path class="cls-1" d="M147.56,15.59C144.15,13,130.05,2.82,119.92,4.17c-15.92,1.13-17.34,22.38.51,23.24,9,.43,19.58-7.19,26.72-11.56l.41-.25ZM119.75,2.83c11.85-1.58,28.5,11.57,29.38,12.27a.67.67,0,0,1,.2.21.68.68,0,0,1-.23.93l-1.25.76c-10.14,6.21-19.8,12.13-27.48,11.76C99.3,27.75,99.87,5,119.75,2.83Z"/><path class="cls-1" d="M149.25,26.69a.69.69,0,0,1-1,.15c-1.63-1.13-3.53-2.7-5.62-4.42-2.34-1.94-4.94-4.08-7.62-6-5.89,3.36-12.11,5.92-15.85,4.58-4.88-1-8.79-6.52-2.77-10.2,5.69-3.32,12.45-.31,18.7,4A134.25,134.25,0,0,0,148.44,5.7a.68.68,0,1,1,.83,1.07,136.68,136.68,0,0,1-13,8.91c2.54,1.84,5,3.86,7.21,5.7s4,3.27,5.51,4.35h0a.68.68,0,0,1,.22,1ZM133.78,15.57c-4.48-3-9.41-4.7-13.58-4.17a4.2,4.2,0,0,0-3,1.61,3.79,3.79,0,0,0-.05,4.14,4.8,4.8,0,0,0,2.52,2.05C122.84,20.34,128.35,18.61,133.78,15.57Z"/><path class="cls-1" d="M150.68,15.6C154.1,13,168.19,2.83,178.32,4.18c15.92,1.13,17.34,22.38-.51,23.24-9,.43-19.57-7.19-26.72-11.56l-.41-.25ZM178.5,2.84C166.65,1.26,149.62,14.33,148.74,15a.6.6,0,0,0-.19.53,1.66,1.66,0,0,0,.6.69l1.25.76c10.14,6.21,19.8,12.13,27.48,11.76C198.94,27.76,198.38,5,178.5,2.84Z"/><path class="cls-1" d="M148.81,26.71a.68.68,0,0,0,1,.15c1.63-1.13,3.53-2.7,5.62-4.42,2.34-1.94,4.94-4.08,7.62-6,5.89,3.37,12.11,5.92,15.85,4.58,4.88-1,8.79-6.52,2.78-10.2-5.69-3.32-12.45-.32-18.7,4a134.12,134.12,0,0,1-13.35-9.12.68.68,0,1,0-.83,1.07,136.78,136.78,0,0,0,13,8.91c-2.54,1.85-5,3.86-7.21,5.7s-4,3.27-5.51,4.35h0a.69.69,0,0,0-.22,1Zm15.47-11.13c4.49-3,9.41-4.7,13.58-4.17,4.9.63,4.64,6.29.54,7.8C175.23,20.36,169.71,18.62,164.28,15.58Z"/><path class="cls-1" d="M148.39,26.06a.78.78,0,0,1,.95.1.49.49,0,0,1-.13.78,49.45,49.45,0,0,1-5,2.8,16.94,16.94,0,0,1-5.06,1.6,9.88,9.88,0,0,1-5.17-.67,13.32,13.32,0,0,1-4.94-3.84.49.49,0,0,1,.17-.77.78.78,0,0,1,.94.14,12.06,12.06,0,0,0,4.44,3.49,8.28,8.28,0,0,0,4.34.56,15.5,15.5,0,0,0,4.59-1.46A48.42,48.42,0,0,0,148.39,26.06Z"/><path class="cls-1" d="M149.94,26.17a.79.79,0,0,0-1,.1c-.23.24-.32.47,0,.66a30.52,30.52,0,0,0,5.11,2.92,17,17,0,0,0,5.06,1.6,9.88,9.88,0,0,0,5.17-.67,13.36,13.36,0,0,0,4.94-3.84.49.49,0,0,0-.17-.77.78.78,0,0,0-.94.14,12.1,12.1,0,0,1-4.44,3.49,8.29,8.29,0,0,1-4.35.56,15.53,15.53,0,0,1-4.59-1.46A48.33,48.33,0,0,1,149.94,26.17Z"/><path class="cls-1" d="M148.56,6a.62.62,0,0,0,.86-.11.61.61,0,0,0-.12-.85A43.38,43.38,0,0,0,144.81,2,13.39,13.39,0,0,0,140.24.23a7.46,7.46,0,0,0-4.68.74A12.66,12.66,0,0,0,131.1,5.2a.61.61,0,0,0,.15.85.62.62,0,0,0,.85-.16,11.53,11.53,0,0,1,4-3.84A6.28,6.28,0,0,1,140,1.43,12.29,12.29,0,0,1,144.2,3,42.4,42.4,0,0,1,148.56,6Z"/><path class="cls-1" d="M150,5.91a.61.61,0,0,1-.86-.12c-.21-.27-.29-.52,0-.72a26.78,26.78,0,0,1,4.62-3.21A13.48,13.48,0,0,1,158.28.1,7.47,7.47,0,0,1,163,.83a12.71,12.71,0,0,1,4.46,4.23.61.61,0,0,1-.16.85.62.62,0,0,1-.85-.16,11.53,11.53,0,0,0-4-3.84,6.28,6.28,0,0,0-3.93-.62,12.24,12.24,0,0,0-4.15,1.61A42.38,42.38,0,0,0,150,5.91Z"/><ellipse class="cls-1" cx="299.39" cy="15.77" rx="2.56" ry="2.47"/><rect class="cls-1" x="3.1" y="14.77" width="101.6" height="2.69"/><rect class="cls-1" x="193.54" y="14.77" width="106.1" height="2.68"/><ellipse class="cls-1" cx="2.56" cy="16.21" rx="2.56" ry="2.47"/></g></g></svg>